<svg xmlns="http://www.w3.org/2000/svg" viewBox="0 0 192 192" fill="none">
  <rect width="192" height="192" rx="44" fill="#141210"/>
  <rect x="16" y="16" width="160" height="160" rx="32" fill="#F59E0B" fill-opacity="0.15" stroke="#F59E0B" stroke-width="4"/>
  <path d="M96 42C78 42 64 54 60 70C48 72 38 82 38 96C38 109 46 120 58 124C58 126 60 146 60 150H132C132 146 134 126 134 124C146 120 154 109 154 96C154 82 144 72 132 70C128 54 114 42 96 42Z" fill="#F59E0B"/>
  <circle cx="96" cy="164" r="8" fill="#F59E0B"/>
</svg>
